<svg width="148" height="100" viewBox="0 0 148 100" fill="none" xmlns="http://www.w3.org/2000/svg">
  <defs>
    <linearGradient id="hFade" x1="0" y1="0" x2="148" y2="100">
      <stop offset="0%" stop-color="#8C6E9F"/>
      <stop offset="35%" stop-color="#B49BC4"/>
      <stop offset="65%" stop-color="#862C3B"/>
      <stop offset="100%" stop-color="#6CCB4C"/>
    </linearGradient>
    <radialGradient id="hGlow" cx="50%" cy="50%" r="50%">
      <stop offset="60%" stop-color="#8C6E9F" stop-opacity="0.25"/>
      <stop offset="100%" stop-color="#2D1A36" stop-opacity="0"/>
    </radialGradient>
    <filter id="glaze">
      <feSpecularLighting result="spec" specularExponent="40" lighting-color="#fff">
        <fePointLight x="60" y="20" z="80"/>
      </feSpecularLighting>
      <feComposite in="SourceGraphic" in2="spec" operator="arithmetic" k1="0" k2="1" k3="0.15" k4="0"/>
    </filter>
  </defs>
  <!-- 背景发光 -->
  <ellipse cx="74" cy="50" rx="74" ry="50" fill="url(#hGlow)"/>
  <!-- 手形轮廓 — 保持 OpenHands 形状但替换为 HOS 色板 -->
  <g filter="url(#glaze)">
    <path d="M71.754 16.863V2.97414C71.754 1.82355 72.6871 0.890503 73.8377 0.890503C74.9883 0.890503 75.9213 1.82355 75.9213 2.97414V16.863C75.9213 18.0136 74.9883 18.9466 73.8377 18.9466C72.6871 18.9466 71.754 18.0136 71.754 16.863Z" fill="#B49BC4"/>
    <path d="M82.5273 18.9329L89.4717 6.90477C90.047 5.90832 91.3215 5.5668 92.318 6.1421C93.3144 6.7174 93.6559 7.99197 93.0806 8.98841L86.1362 21.0165C85.5609 22.0129 84.2864 22.3545 83.2899 21.7792C82.2935 21.2039 81.952 19.9293 82.5273 18.9329Z" fill="#8C6E9F"/>
    <path d="M65.1481 18.9329L58.2037 6.90477C57.6284 5.90832 56.3538 5.5668 55.3574 6.1421C54.3609 6.7174 54.0194 7.99197 54.5947 8.98841L61.5391 21.0165C62.1144 22.0129 63.389 22.3545 64.3854 21.7792C65.3819 21.2039 65.7234 19.9293 65.1481 18.9329Z" fill="#862C3B"/>
    <path d="M98.5045 92.4969C95.1427 89.7602 90.8793 83.6628 89.0929 77.664C86.8598 70.1655 82.0309 62.777 80.9578 60.9138C80.0056 59.2602 83.0313 53.2605 89.0929 58.0459C93.9421 61.8742 97.3878 68.466 98.5045 71.2833C98.9566 72.4239 103.006 79.2475 101.827 56.6051C101.455 49.445 100.49 44.3126 100.036 33.9388C99.6807 25.7997 101.824 23.057 105.11 23.057C108.396 23.057 111.106 24.1244 111.106 32.4283C111.106 22.8682 113.154 20.7141 117.646 20.7147C121.39 20.7153 123.069 23.9077 123.069 27.0952V32.5084C123.069 27.0952 126.669 26.5896 128.519 26.5896C130.37 26.5896 134.076 28.1957 134.076 32.5084V43.317C134.076 38.116 137.324 36.601 139.773 36.765C142.963 36.9786 144.405 39.2382 143.965 44.3126C143.651 47.9349 142.689 58.5273 142.689 62.0291C142.689 65.1712 143.965 71.6801 142.689 77.664C141.953 81.1168 140.137 90.2628 130.885 94.4102C121.634 98.5575 105.364 98.0807 98.5045 92.4969Z" fill="url(#hFade)" opacity="0.95"/>
    <path d="M49.258 92.4969C52.6198 89.7602 56.8832 83.6628 58.6696 77.664C60.9027 70.1655 65.7316 62.777 66.8047 60.9138C67.757 59.2602 64.7312 53.2605 58.6696 58.0459C53.8204 61.8742 50.3747 68.466 49.258 71.2833C48.8059 72.4239 44.7566 79.2475 45.935 56.6051C46.3077 49.445 47.2728 44.3126 47.7261 33.9388C48.0818 25.7997 45.9381 23.057 42.6523 23.057C39.3666 23.057 36.6568 24.1244 36.6568 32.4283C36.6568 22.8682 34.6087 20.7141 30.1168 20.7147C26.3728 20.7153 24.6934 23.9077 24.6934 27.0952V32.5084C24.6934 27.0952 21.0938 26.5896 19.243 26.5896C17.3923 26.5896 13.687 28.1957 13.687 32.5084V43.317C13.687 38.116 10.4388 36.601 7.98968 36.765C4.79943 36.9786 3.3574 39.2382 3.79721 44.3126C4.11115 47.9349 5.07331 58.5273 5.07331 62.0291C5.07331 65.1712 3.79721 71.6801 5.07331 77.664C5.80964 81.1168 7.62551 90.2628 16.8772 94.4102C26.129 98.5575 42.3987 98.0807 49.258 92.4969Z" fill="url(#hFade)" opacity="0.85"/>
    <!-- 花心点缀 -->
    <circle cx="74" cy="50" r="6" fill="#6CCB4C" opacity="0.8"/>
    <circle cx="74" cy="50" r="3" fill="#862C3B"/>
    <!-- 高光层 -->
    <path d="M98.5045 92.4969C95.1427 89.7602 90.8793 83.6628 89.0929 77.664C86.8598 70.1655 82.0309 62.777 80.9578 60.9138C80.0056 59.2602 83.0313 53.2605 89.0929 58.0459C93.9421 61.8742 97.3878 68.466 98.5045 71.2833" fill="#B49BC4" opacity="0.2"/>
  </g>
</svg>
